<svg width="500" height="500" xmlns="http://www.w3.org/2000/svg">
  <title>rose bookmarks</title>
  <g>
    <title>Layer 1</title>
    <path fill="#64b5f6" stroke-width="6" opacity="undefined" d="m155.25301,24.9406l189.99996,0l0,161.16711l-189.99996,-109.54328l0,-51.62383z" id="svg_4" stroke="#000" />
    <path transform="rotate(90 250.253 245.91)" fill="#1abc9c" stroke-width="6" d="m140.19462,340.89154l110.05836,-189.96334l110.05836,189.96334l-220.11671,0l-0.00001,0z" id="svg_5" stroke="#000" />
    <path fill="#fb8c00" stroke="#000" stroke-width="6" opacity="undefined" d="m344.6962,303.77971l0,128.04288l-61.69044,-35.49866l-127.19598,73.00618l0,-56.90795l188.88642,-108.64245z" id="svg_9" />
    <line fill="none" stroke="#000" stroke-width="6" x1="232.83903" y1="367.85621" x2="281.20001" y2="395.87223" id="svg_10" />
    <path transform="rotate(90 169.753 338.325)" stroke="#000" id="svg_1" d="m152.83819,351.99009l16.91444,-27.32973l16.91444,27.32973l-33.82888,0z" stroke-width="6" fill="#e91e63" />
    <path transform="rotate(-90 287.923 368.434)" stroke="#000" id="svg_3" d="m224.43906,424.00604l63.48373,-111.14431l63.48373,111.14431l-126.96746,0z" stroke-width="6" fill="#26a69a" />
    </g>

</svg>